%TF.GenerationSoftware,KiCad,Pcbnew,7.0.6*%
%TF.CreationDate,2023-09-02T17:04:30+01:00*%
%TF.ProjectId,gbc_fidget,6762635f-6669-4646-9765-742e6b696361,rev?*%
%TF.SameCoordinates,Original*%
%TF.FileFunction,Copper,L1,Top*%
%TF.FilePolarity,Positive*%
%FSLAX46Y46*%
G04 Gerber Fmt 4.6, Leading zero omitted, Abs format (unit mm)*
G04 Created by KiCad (PCBNEW 7.0.6) date 2023-09-02 17:04:30*
%MOMM*%
%LPD*%
G01*
G04 APERTURE LIST*
G04 Aperture macros list*
%AMRoundRect*
0 Rectangle with rounded corners*
0 $1 Rounding radius*
0 $2 $3 $4 $5 $6 $7 $8 $9 X,Y pos of 4 corners*
0 Add a 4 corners polygon primitive as box body*
4,1,4,$2,$3,$4,$5,$6,$7,$8,$9,$2,$3,0*
0 Add four circle primitives for the rounded corners*
1,1,$1+$1,$2,$3*
1,1,$1+$1,$4,$5*
1,1,$1+$1,$6,$7*
1,1,$1+$1,$8,$9*
0 Add four rect primitives between the rounded corners*
20,1,$1+$1,$2,$3,$4,$5,0*
20,1,$1+$1,$4,$5,$6,$7,0*
20,1,$1+$1,$6,$7,$8,$9,0*
20,1,$1+$1,$8,$9,$2,$3,0*%
G04 Aperture macros list end*
%TA.AperFunction,SMDPad,CuDef*%
%ADD10RoundRect,0.237500X0.287500X0.237500X-0.287500X0.237500X-0.287500X-0.237500X0.287500X-0.237500X0*%
%TD*%
%TA.AperFunction,SMDPad,CuDef*%
%ADD11R,0.500000X5.000000*%
%TD*%
%TA.AperFunction,SMDPad,CuDef*%
%ADD12R,2.200000X6.000000*%
%TD*%
%TA.AperFunction,ViaPad*%
%ADD13C,0.800000*%
%TD*%
%TA.AperFunction,Conductor*%
%ADD14C,0.250000*%
%TD*%
G04 APERTURE END LIST*
D10*
%TO.P,D1,1,K*%
%TO.N,Net-(BT1--)*%
X152245000Y-75971400D03*
%TO.P,D1,2,A*%
%TO.N,Net-(D1-A)*%
X150495000Y-75971400D03*
%TD*%
D11*
%TO.P,SW2,1,1*%
%TO.N,Net-(BT1-+)*%
X164774880Y-69570600D03*
D12*
X167563800Y-69570600D03*
%TO.P,SW2,2,2*%
%TO.N,Net-(D2-A)*%
X162991800Y-69570600D03*
D11*
X165780720Y-69570600D03*
%TD*%
%TO.P,SW1,1,1*%
%TO.N,Net-(BT1-+)*%
X150830280Y-71983600D03*
D12*
X153619200Y-71983600D03*
%TO.P,SW1,2,2*%
%TO.N,Net-(D1-A)*%
X149047200Y-71983600D03*
D11*
X151836120Y-71983600D03*
%TD*%
D10*
%TO.P,D2,1,K*%
%TO.N,Net-(BT1--)*%
X166025800Y-73507600D03*
%TO.P,D2,2,A*%
%TO.N,Net-(D2-A)*%
X164275800Y-73507600D03*
%TD*%
D13*
%TO.N,Net-(BT1--)*%
X161086800Y-83845400D03*
%TO.N,Net-(BT1-+)*%
X169824400Y-66370200D03*
%TD*%
D14*
%TO.N,Net-(BT1--)*%
X166152800Y-80532000D02*
X162712400Y-83972400D01*
X152245000Y-75971400D02*
X153212800Y-75971400D01*
X153212800Y-75971400D02*
X161086800Y-83845400D01*
X162712400Y-83972400D02*
X161213800Y-83972400D01*
X166152800Y-73583800D02*
X166152800Y-80532000D01*
X161213800Y-83972400D02*
X161086800Y-83845400D01*
%TO.N,Net-(BT1-+)*%
X153035000Y-68351400D02*
X153619200Y-68935600D01*
X164592000Y-65100200D02*
X165341300Y-65849500D01*
X150830280Y-68930520D02*
X151409400Y-68351400D01*
X164774880Y-69570600D02*
X164774880Y-66415920D01*
X153619200Y-70180200D02*
X158699200Y-65100200D01*
X169824400Y-66370200D02*
X167563800Y-68630800D01*
X158699200Y-65100200D02*
X164592000Y-65100200D01*
X167563800Y-68072000D02*
X167563800Y-69570600D01*
X165341300Y-65849500D02*
X167563800Y-68072000D01*
X167563800Y-68630800D02*
X167563800Y-69570600D01*
X151409400Y-68351400D02*
X153035000Y-68351400D01*
X164774880Y-66415920D02*
X165341300Y-65849500D01*
X153619200Y-71983600D02*
X153619200Y-70180200D01*
X150830280Y-71983600D02*
X150830280Y-68930520D01*
X153619200Y-68935600D02*
X153619200Y-71983600D01*
%TO.N,Net-(D1-A)*%
X150444200Y-75971400D02*
X151836120Y-74579480D01*
X149047200Y-71983600D02*
X149047200Y-74574400D01*
X151836120Y-74579480D02*
X151836120Y-71983600D01*
X149047200Y-74574400D02*
X150444200Y-75971400D01*
%TO.N,Net-(D2-A)*%
X164402800Y-73198520D02*
X164402800Y-73583800D01*
X165780720Y-71820600D02*
X164402800Y-73198520D01*
X162991800Y-72172800D02*
X164402800Y-73583800D01*
X165780720Y-69570600D02*
X165780720Y-71820600D01*
X162991800Y-69570600D02*
X162991800Y-72172800D01*
%TD*%
M02*
