%TF.GenerationSoftware,KiCad,Pcbnew,7.0.6*%
%TF.CreationDate,2023-09-02T17:04:30+01:00*%
%TF.ProjectId,gbc_fidget,6762635f-6669-4646-9765-742e6b696361,rev?*%
%TF.SameCoordinates,Original*%
%TF.FileFunction,Legend,Bot*%
%TF.FilePolarity,Positive*%
%FSLAX46Y46*%
G04 Gerber Fmt 4.6, Leading zero omitted, Abs format (unit mm)*
G04 Created by KiCad (PCBNEW 7.0.6) date 2023-09-02 17:04:30*
%MOMM*%
%LPD*%
G01*
G04 APERTURE LIST*
%ADD10C,0.150000*%
%ADD11C,0.120000*%
G04 APERTURE END LIST*
D10*
X169192411Y-86547438D02*
X169287649Y-86499819D01*
X169287649Y-86499819D02*
X169430506Y-86499819D01*
X169430506Y-86499819D02*
X169573363Y-86547438D01*
X169573363Y-86547438D02*
X169668601Y-86642676D01*
X169668601Y-86642676D02*
X169716220Y-86737914D01*
X169716220Y-86737914D02*
X169763839Y-86928390D01*
X169763839Y-86928390D02*
X169763839Y-87071247D01*
X169763839Y-87071247D02*
X169716220Y-87261723D01*
X169716220Y-87261723D02*
X169668601Y-87356961D01*
X169668601Y-87356961D02*
X169573363Y-87452200D01*
X169573363Y-87452200D02*
X169430506Y-87499819D01*
X169430506Y-87499819D02*
X169335268Y-87499819D01*
X169335268Y-87499819D02*
X169192411Y-87452200D01*
X169192411Y-87452200D02*
X169144792Y-87404580D01*
X169144792Y-87404580D02*
X169144792Y-87071247D01*
X169144792Y-87071247D02*
X169335268Y-87071247D01*
X168382887Y-86976009D02*
X168240030Y-87023628D01*
X168240030Y-87023628D02*
X168192411Y-87071247D01*
X168192411Y-87071247D02*
X168144792Y-87166485D01*
X168144792Y-87166485D02*
X168144792Y-87309342D01*
X168144792Y-87309342D02*
X168192411Y-87404580D01*
X168192411Y-87404580D02*
X168240030Y-87452200D01*
X168240030Y-87452200D02*
X168335268Y-87499819D01*
X168335268Y-87499819D02*
X168716220Y-87499819D01*
X168716220Y-87499819D02*
X168716220Y-86499819D01*
X168716220Y-86499819D02*
X168382887Y-86499819D01*
X168382887Y-86499819D02*
X168287649Y-86547438D01*
X168287649Y-86547438D02*
X168240030Y-86595057D01*
X168240030Y-86595057D02*
X168192411Y-86690295D01*
X168192411Y-86690295D02*
X168192411Y-86785533D01*
X168192411Y-86785533D02*
X168240030Y-86880771D01*
X168240030Y-86880771D02*
X168287649Y-86928390D01*
X168287649Y-86928390D02*
X168382887Y-86976009D01*
X168382887Y-86976009D02*
X168716220Y-86976009D01*
X167144792Y-87404580D02*
X167192411Y-87452200D01*
X167192411Y-87452200D02*
X167335268Y-87499819D01*
X167335268Y-87499819D02*
X167430506Y-87499819D01*
X167430506Y-87499819D02*
X167573363Y-87452200D01*
X167573363Y-87452200D02*
X167668601Y-87356961D01*
X167668601Y-87356961D02*
X167716220Y-87261723D01*
X167716220Y-87261723D02*
X167763839Y-87071247D01*
X167763839Y-87071247D02*
X167763839Y-86928390D01*
X167763839Y-86928390D02*
X167716220Y-86737914D01*
X167716220Y-86737914D02*
X167668601Y-86642676D01*
X167668601Y-86642676D02*
X167573363Y-86547438D01*
X167573363Y-86547438D02*
X167430506Y-86499819D01*
X167430506Y-86499819D02*
X167335268Y-86499819D01*
X167335268Y-86499819D02*
X167192411Y-86547438D01*
X167192411Y-86547438D02*
X167144792Y-86595057D01*
X166954316Y-87595057D02*
X166192411Y-87595057D01*
X166097172Y-86833152D02*
X165716220Y-86833152D01*
X165954315Y-87499819D02*
X165954315Y-86642676D01*
X165954315Y-86642676D02*
X165906696Y-86547438D01*
X165906696Y-86547438D02*
X165811458Y-86499819D01*
X165811458Y-86499819D02*
X165716220Y-86499819D01*
X165382886Y-87499819D02*
X165382886Y-86833152D01*
X165382886Y-86499819D02*
X165430505Y-86547438D01*
X165430505Y-86547438D02*
X165382886Y-86595057D01*
X165382886Y-86595057D02*
X165335267Y-86547438D01*
X165335267Y-86547438D02*
X165382886Y-86499819D01*
X165382886Y-86499819D02*
X165382886Y-86595057D01*
X164478125Y-87499819D02*
X164478125Y-86499819D01*
X164478125Y-87452200D02*
X164573363Y-87499819D01*
X164573363Y-87499819D02*
X164763839Y-87499819D01*
X164763839Y-87499819D02*
X164859077Y-87452200D01*
X164859077Y-87452200D02*
X164906696Y-87404580D01*
X164906696Y-87404580D02*
X164954315Y-87309342D01*
X164954315Y-87309342D02*
X164954315Y-87023628D01*
X164954315Y-87023628D02*
X164906696Y-86928390D01*
X164906696Y-86928390D02*
X164859077Y-86880771D01*
X164859077Y-86880771D02*
X164763839Y-86833152D01*
X164763839Y-86833152D02*
X164573363Y-86833152D01*
X164573363Y-86833152D02*
X164478125Y-86880771D01*
X163573363Y-86833152D02*
X163573363Y-87642676D01*
X163573363Y-87642676D02*
X163620982Y-87737914D01*
X163620982Y-87737914D02*
X163668601Y-87785533D01*
X163668601Y-87785533D02*
X163763839Y-87833152D01*
X163763839Y-87833152D02*
X163906696Y-87833152D01*
X163906696Y-87833152D02*
X164001934Y-87785533D01*
X163573363Y-87452200D02*
X163668601Y-87499819D01*
X163668601Y-87499819D02*
X163859077Y-87499819D01*
X163859077Y-87499819D02*
X163954315Y-87452200D01*
X163954315Y-87452200D02*
X164001934Y-87404580D01*
X164001934Y-87404580D02*
X164049553Y-87309342D01*
X164049553Y-87309342D02*
X164049553Y-87023628D01*
X164049553Y-87023628D02*
X164001934Y-86928390D01*
X164001934Y-86928390D02*
X163954315Y-86880771D01*
X163954315Y-86880771D02*
X163859077Y-86833152D01*
X163859077Y-86833152D02*
X163668601Y-86833152D01*
X163668601Y-86833152D02*
X163573363Y-86880771D01*
X162716220Y-87452200D02*
X162811458Y-87499819D01*
X162811458Y-87499819D02*
X163001934Y-87499819D01*
X163001934Y-87499819D02*
X163097172Y-87452200D01*
X163097172Y-87452200D02*
X163144791Y-87356961D01*
X163144791Y-87356961D02*
X163144791Y-86976009D01*
X163144791Y-86976009D02*
X163097172Y-86880771D01*
X163097172Y-86880771D02*
X163001934Y-86833152D01*
X163001934Y-86833152D02*
X162811458Y-86833152D01*
X162811458Y-86833152D02*
X162716220Y-86880771D01*
X162716220Y-86880771D02*
X162668601Y-86976009D01*
X162668601Y-86976009D02*
X162668601Y-87071247D01*
X162668601Y-87071247D02*
X163144791Y-87166485D01*
X162382886Y-86833152D02*
X162001934Y-86833152D01*
X162240029Y-86499819D02*
X162240029Y-87356961D01*
X162240029Y-87356961D02*
X162192410Y-87452200D01*
X162192410Y-87452200D02*
X162097172Y-87499819D01*
X162097172Y-87499819D02*
X162001934Y-87499819D01*
X153812687Y-61109009D02*
X154146020Y-61109009D01*
X154146020Y-61632819D02*
X154146020Y-60632819D01*
X154146020Y-60632819D02*
X153669830Y-60632819D01*
X152860306Y-61632819D02*
X152860306Y-61109009D01*
X152860306Y-61109009D02*
X152907925Y-61013771D01*
X152907925Y-61013771D02*
X153003163Y-60966152D01*
X153003163Y-60966152D02*
X153193639Y-60966152D01*
X153193639Y-60966152D02*
X153288877Y-61013771D01*
X152860306Y-61585200D02*
X152955544Y-61632819D01*
X152955544Y-61632819D02*
X153193639Y-61632819D01*
X153193639Y-61632819D02*
X153288877Y-61585200D01*
X153288877Y-61585200D02*
X153336496Y-61489961D01*
X153336496Y-61489961D02*
X153336496Y-61394723D01*
X153336496Y-61394723D02*
X153288877Y-61299485D01*
X153288877Y-61299485D02*
X153193639Y-61251866D01*
X153193639Y-61251866D02*
X152955544Y-61251866D01*
X152955544Y-61251866D02*
X152860306Y-61204247D01*
X151955544Y-61585200D02*
X152050782Y-61632819D01*
X152050782Y-61632819D02*
X152241258Y-61632819D01*
X152241258Y-61632819D02*
X152336496Y-61585200D01*
X152336496Y-61585200D02*
X152384115Y-61537580D01*
X152384115Y-61537580D02*
X152431734Y-61442342D01*
X152431734Y-61442342D02*
X152431734Y-61156628D01*
X152431734Y-61156628D02*
X152384115Y-61061390D01*
X152384115Y-61061390D02*
X152336496Y-61013771D01*
X152336496Y-61013771D02*
X152241258Y-60966152D01*
X152241258Y-60966152D02*
X152050782Y-60966152D01*
X152050782Y-60966152D02*
X151955544Y-61013771D01*
X151146020Y-61585200D02*
X151241258Y-61632819D01*
X151241258Y-61632819D02*
X151431734Y-61632819D01*
X151431734Y-61632819D02*
X151526972Y-61585200D01*
X151526972Y-61585200D02*
X151574591Y-61489961D01*
X151574591Y-61489961D02*
X151574591Y-61109009D01*
X151574591Y-61109009D02*
X151526972Y-61013771D01*
X151526972Y-61013771D02*
X151431734Y-60966152D01*
X151431734Y-60966152D02*
X151241258Y-60966152D01*
X151241258Y-60966152D02*
X151146020Y-61013771D01*
X151146020Y-61013771D02*
X151098401Y-61109009D01*
X151098401Y-61109009D02*
X151098401Y-61204247D01*
X151098401Y-61204247D02*
X151574591Y-61299485D01*
X150526972Y-61632819D02*
X150622210Y-61585200D01*
X150622210Y-61585200D02*
X150669829Y-61489961D01*
X150669829Y-61489961D02*
X150669829Y-60632819D01*
X149765067Y-61585200D02*
X149860305Y-61632819D01*
X149860305Y-61632819D02*
X150050781Y-61632819D01*
X150050781Y-61632819D02*
X150146019Y-61585200D01*
X150146019Y-61585200D02*
X150193638Y-61489961D01*
X150193638Y-61489961D02*
X150193638Y-61109009D01*
X150193638Y-61109009D02*
X150146019Y-61013771D01*
X150146019Y-61013771D02*
X150050781Y-60966152D01*
X150050781Y-60966152D02*
X149860305Y-60966152D01*
X149860305Y-60966152D02*
X149765067Y-61013771D01*
X149765067Y-61013771D02*
X149717448Y-61109009D01*
X149717448Y-61109009D02*
X149717448Y-61204247D01*
X149717448Y-61204247D02*
X150193638Y-61299485D01*
X149336495Y-61585200D02*
X149241257Y-61632819D01*
X149241257Y-61632819D02*
X149050781Y-61632819D01*
X149050781Y-61632819D02*
X148955543Y-61585200D01*
X148955543Y-61585200D02*
X148907924Y-61489961D01*
X148907924Y-61489961D02*
X148907924Y-61442342D01*
X148907924Y-61442342D02*
X148955543Y-61347104D01*
X148955543Y-61347104D02*
X149050781Y-61299485D01*
X149050781Y-61299485D02*
X149193638Y-61299485D01*
X149193638Y-61299485D02*
X149288876Y-61251866D01*
X149288876Y-61251866D02*
X149336495Y-61156628D01*
X149336495Y-61156628D02*
X149336495Y-61109009D01*
X149336495Y-61109009D02*
X149288876Y-61013771D01*
X149288876Y-61013771D02*
X149193638Y-60966152D01*
X149193638Y-60966152D02*
X149050781Y-60966152D01*
X149050781Y-60966152D02*
X148955543Y-61013771D01*
X148526971Y-61585200D02*
X148431733Y-61632819D01*
X148431733Y-61632819D02*
X148241257Y-61632819D01*
X148241257Y-61632819D02*
X148146019Y-61585200D01*
X148146019Y-61585200D02*
X148098400Y-61489961D01*
X148098400Y-61489961D02*
X148098400Y-61442342D01*
X148098400Y-61442342D02*
X148146019Y-61347104D01*
X148146019Y-61347104D02*
X148241257Y-61299485D01*
X148241257Y-61299485D02*
X148384114Y-61299485D01*
X148384114Y-61299485D02*
X148479352Y-61251866D01*
X148479352Y-61251866D02*
X148526971Y-61156628D01*
X148526971Y-61156628D02*
X148526971Y-61109009D01*
X148526971Y-61109009D02*
X148479352Y-61013771D01*
X148479352Y-61013771D02*
X148384114Y-60966152D01*
X148384114Y-60966152D02*
X148241257Y-60966152D01*
X148241257Y-60966152D02*
X148146019Y-61013771D01*
X147812685Y-60966152D02*
X147431733Y-60966152D01*
X147669828Y-60632819D02*
X147669828Y-61489961D01*
X147669828Y-61489961D02*
X147622209Y-61585200D01*
X147622209Y-61585200D02*
X147526971Y-61632819D01*
X147526971Y-61632819D02*
X147431733Y-61632819D01*
X146717447Y-61585200D02*
X146812685Y-61632819D01*
X146812685Y-61632819D02*
X147003161Y-61632819D01*
X147003161Y-61632819D02*
X147098399Y-61585200D01*
X147098399Y-61585200D02*
X147146018Y-61489961D01*
X147146018Y-61489961D02*
X147146018Y-61109009D01*
X147146018Y-61109009D02*
X147098399Y-61013771D01*
X147098399Y-61013771D02*
X147003161Y-60966152D01*
X147003161Y-60966152D02*
X146812685Y-60966152D01*
X146812685Y-60966152D02*
X146717447Y-61013771D01*
X146717447Y-61013771D02*
X146669828Y-61109009D01*
X146669828Y-61109009D02*
X146669828Y-61204247D01*
X146669828Y-61204247D02*
X147146018Y-61299485D01*
X145812685Y-61585200D02*
X145907923Y-61632819D01*
X145907923Y-61632819D02*
X146098399Y-61632819D01*
X146098399Y-61632819D02*
X146193637Y-61585200D01*
X146193637Y-61585200D02*
X146241256Y-61537580D01*
X146241256Y-61537580D02*
X146288875Y-61442342D01*
X146288875Y-61442342D02*
X146288875Y-61156628D01*
X146288875Y-61156628D02*
X146241256Y-61061390D01*
X146241256Y-61061390D02*
X146193637Y-61013771D01*
X146193637Y-61013771D02*
X146098399Y-60966152D01*
X146098399Y-60966152D02*
X145907923Y-60966152D01*
X145907923Y-60966152D02*
X145812685Y-61013771D01*
X145384113Y-61632819D02*
X145384113Y-60632819D01*
X144955542Y-61632819D02*
X144955542Y-61109009D01*
X144955542Y-61109009D02*
X145003161Y-61013771D01*
X145003161Y-61013771D02*
X145098399Y-60966152D01*
X145098399Y-60966152D02*
X145241256Y-60966152D01*
X145241256Y-60966152D02*
X145336494Y-61013771D01*
X145336494Y-61013771D02*
X145384113Y-61061390D01*
X151146019Y-62338057D02*
X151098400Y-62290438D01*
X151098400Y-62290438D02*
X151003162Y-62242819D01*
X151003162Y-62242819D02*
X150765067Y-62242819D01*
X150765067Y-62242819D02*
X150669829Y-62290438D01*
X150669829Y-62290438D02*
X150622210Y-62338057D01*
X150622210Y-62338057D02*
X150574591Y-62433295D01*
X150574591Y-62433295D02*
X150574591Y-62528533D01*
X150574591Y-62528533D02*
X150622210Y-62671390D01*
X150622210Y-62671390D02*
X151193638Y-63242819D01*
X151193638Y-63242819D02*
X150574591Y-63242819D01*
X149955543Y-62242819D02*
X149860305Y-62242819D01*
X149860305Y-62242819D02*
X149765067Y-62290438D01*
X149765067Y-62290438D02*
X149717448Y-62338057D01*
X149717448Y-62338057D02*
X149669829Y-62433295D01*
X149669829Y-62433295D02*
X149622210Y-62623771D01*
X149622210Y-62623771D02*
X149622210Y-62861866D01*
X149622210Y-62861866D02*
X149669829Y-63052342D01*
X149669829Y-63052342D02*
X149717448Y-63147580D01*
X149717448Y-63147580D02*
X149765067Y-63195200D01*
X149765067Y-63195200D02*
X149860305Y-63242819D01*
X149860305Y-63242819D02*
X149955543Y-63242819D01*
X149955543Y-63242819D02*
X150050781Y-63195200D01*
X150050781Y-63195200D02*
X150098400Y-63147580D01*
X150098400Y-63147580D02*
X150146019Y-63052342D01*
X150146019Y-63052342D02*
X150193638Y-62861866D01*
X150193638Y-62861866D02*
X150193638Y-62623771D01*
X150193638Y-62623771D02*
X150146019Y-62433295D01*
X150146019Y-62433295D02*
X150098400Y-62338057D01*
X150098400Y-62338057D02*
X150050781Y-62290438D01*
X150050781Y-62290438D02*
X149955543Y-62242819D01*
X149241257Y-62338057D02*
X149193638Y-62290438D01*
X149193638Y-62290438D02*
X149098400Y-62242819D01*
X149098400Y-62242819D02*
X148860305Y-62242819D01*
X148860305Y-62242819D02*
X148765067Y-62290438D01*
X148765067Y-62290438D02*
X148717448Y-62338057D01*
X148717448Y-62338057D02*
X148669829Y-62433295D01*
X148669829Y-62433295D02*
X148669829Y-62528533D01*
X148669829Y-62528533D02*
X148717448Y-62671390D01*
X148717448Y-62671390D02*
X149288876Y-63242819D01*
X149288876Y-63242819D02*
X148669829Y-63242819D01*
X148336495Y-62242819D02*
X147717448Y-62242819D01*
X147717448Y-62242819D02*
X148050781Y-62623771D01*
X148050781Y-62623771D02*
X147907924Y-62623771D01*
X147907924Y-62623771D02*
X147812686Y-62671390D01*
X147812686Y-62671390D02*
X147765067Y-62719009D01*
X147765067Y-62719009D02*
X147717448Y-62814247D01*
X147717448Y-62814247D02*
X147717448Y-63052342D01*
X147717448Y-63052342D02*
X147765067Y-63147580D01*
X147765067Y-63147580D02*
X147812686Y-63195200D01*
X147812686Y-63195200D02*
X147907924Y-63242819D01*
X147907924Y-63242819D02*
X148193638Y-63242819D01*
X148193638Y-63242819D02*
X148288876Y-63195200D01*
X148288876Y-63195200D02*
X148336495Y-63147580D01*
D11*
%TO.C,BT1*%
X169606200Y-77544000D02*
X168166200Y-81494000D01*
X169606200Y-76914000D02*
X169606200Y-77544000D01*
X169606200Y-68454000D02*
X169606200Y-70914000D01*
X167526200Y-66374000D02*
X169606200Y-68454000D01*
X164026200Y-66374000D02*
X167526200Y-66374000D01*
X150126200Y-66374000D02*
X153626200Y-66374000D01*
X150126200Y-66374000D02*
X148046200Y-68454000D01*
X148046200Y-77544000D02*
X149486200Y-81494000D01*
X148046200Y-76914000D02*
X148046200Y-77544000D01*
X148046200Y-68454000D02*
X148046200Y-70914000D01*
X164829554Y-82480530D02*
G75*
G03*
X168166200Y-81494000I1306646J1716531D01*
G01*
X149500957Y-81502169D02*
G75*
G03*
X152826200Y-82463999I2015243J738169D01*
G01*
%TD*%
M02*
